<svg xmlns="http://www.w3.org/2000/svg" version="1.1" xmlns:xlink="http://www.w3.org/1999/xlink"  x="0" y="0" viewBox="0 0 510 510" style="enable-background:new 0 0 512 512" xml:space="preserve"><g><g><path d="m468.398 102.754-164.567-76.093c-16.531-7.637-35.566-4.54-48.831 7.309-13.23-11.819-32.26-14.965-48.835-7.308l-164.563 76.092-41.602 81.133v168.331c12.861-5.83 109.973-49.853 125.728-56.995 15.771-7.296 27.746-20.3 33.72-36.62l26.24-71.733c6.257-17 1.557-35.085-9.995-46.954l67.692-31.301c4.351-2.012 8.237-4.646 11.615-7.736 3.377 3.091 7.264 5.725 11.614 7.736l67.693 31.301c-11.587 11.902-16.24 29.986-10.005 46.927l26.251 71.763c5.973 16.318 17.947 29.322 33.719 36.618l125.728 56.994v-168.331zm-237.604-21.37-106.229 49.12c-10.919 5.046-19.211 14.042-23.341 25.314l-.006-.002c-16.229 44.137 9.184-24.982-22.535 61.299l28.158 10.352c.941-2.561-5.33 14.495 22.543-61.307 2.831-7.721 11.425-11.768 19.253-8.891 7.751 2.846 11.765 11.448 8.887 19.267l-26.249 71.759c-3.208 8.765-9.637 15.753-18.103 19.682l-83.172 37.703v-114.551l33.578-65.484 155.173-71.749c7.558-3.493 16.663-.175 20.059 7.646 3.218 7.41-.378 16.311-8.016 19.842zm249.206 224.296-83.172-37.704c-8.466-3.929-14.895-10.917-18.102-19.68l-26.26-71.789c-2.858-7.761 1.124-16.384 8.898-19.239 7.756-2.851 16.396 1.104 19.258 8.911 27.873 75.802 21.592 58.719 22.536 61.287l28.158-10.352c-28.327-77.055-.599-1.643-22.535-61.299l-.006.002c-4.141-11.283-12.431-20.273-23.329-25.308-.154-.071-106.087-49.055-106.242-49.126-7.637-3.531-11.233-12.432-8.018-19.839 3.383-7.787 12.467-11.159 20.058-7.651l155.177 71.751 33.579 65.485z" fill="currentColor" data-original="#000000"/><path d="m313.924 353.824c10.054-12.763 16.076-28.845 16.076-46.316 0-41.355-33.645-75-75-75s-75 33.645-75 75c0 17.472 6.021 33.553 16.076 46.316-34.722 6.548-61.076 37.087-61.076 73.684v60h240v-60c0-36.597-26.353-67.136-61.076-73.684zm-58.924-91.316c24.814 0 45 20.187 45 45 0 24.814-20.186 45-45 45s-45-20.186-45-45 20.186-45 45-45zm90 195h-30v-45h-30v45h-60v-45h-30v45h-30v-30c0-24.813 20.186-45 45-45h90c24.814 0 45 20.187 45 45z" fill="currentColor" data-original="#000000"/></g></g></svg>