<svg xmlns="http://www.w3.org/2000/svg" version="1.1" xmlns:xlink="http://www.w3.org/1999/xlink" x="0" y="0" viewBox="0 0 64 64" style="enable-background:new 0 0 512 512" xml:space="preserve"><g><g><path d="m60.728 21.651-3.728-.932-2-.5-2-.5-2-.5v-2.46c3.688-.56 7.119-2.116 9.965-4.555l.928-.794c.704-.604 1.107-1.482 1.107-2.41s-.403-1.806-1.108-2.411l-.927-.793c-3.608-3.092-8.212-4.796-12.965-4.796s-9.357 1.704-12.965 4.796l-.928.794c-.704.604-1.107 1.482-1.107 2.41s.403 1.806 1.108 2.411l.926.793c1.672 1.433 3.549 2.554 5.557 3.358l-7.938 9.806c-.505-.231-1.062-.368-1.653-.368-.87 0-1.67.286-2.327.76l-3.719-3.098c.659-1.067 1.046-2.319 1.046-3.662 0-3.86-3.141-7-7-7s-7 3.14-7 7c0 1.903.765 3.628 2.002 4.891l-5.832 7.625c-.659-.32-1.389-.516-2.17-.516-2.757 0-5 2.243-5 5s2.243 5 5 5 5-2.243 5-5c0-1.253-.48-2.386-1.244-3.265l5.833-7.628c1.01.567 2.173.893 3.411.893 1.797 0 3.433-.687 4.674-1.804l3.721 3.101c-.246.518-.395 1.092-.395 1.703 0 2.206 1.794 4 4 4s4-1.794 4-4c0-.89-.302-1.704-.795-2.369l8.404-10.382c.782.219 1.581.387 2.391.51v6.47c-.927-.756-2.094-1.229-3.382-1.229-1.443 0-2.618 1.174-2.618 2.618 0 .404.096.809.276 1.171l1.195 2.391c.346.691.529 1.464.529 2.237v4.479c0 1.583.545 3.137 1.533 4.373l2.229 2.786-1.762 2.642v16.303h-9v-16.073c1.146-.279 2-1.314 2-2.545 0-.404-.096-.81-.276-1.171l-2.382-4.765c-.447-.891-1.345-1.446-2.342-1.446s-1.895.555-2.342 1.447l-2.382 4.764c-.18.361-.276.767-.276 1.171 0 1.23.854 2.266 2 2.545v16.073h-6v-23.073c1.146-.279 2-1.314 2-2.545 0-.404-.096-.81-.276-1.171l-2.382-4.764c-.447-.892-1.344-1.447-2.342-1.447s-1.895.555-2.342 1.447l-2.382 4.764c-.18.361-.276.767-.276 1.171 0 1.23.854 2.266 2 2.545v23.073h-7v-8.073c1.146-.279 2-1.314 2-2.545 0-.404-.096-.81-.276-1.171l-2.382-4.765c-.447-.891-1.345-1.446-2.342-1.446s-1.895.555-2.342 1.447l-2.382 4.764c-.18.361-.276.767-.276 1.171 0 1.23.854 2.266 2 2.545v8.073h-2v2h62v-2h-2v-16.303l-1.762-2.643 2.229-2.786c.988-1.236 1.533-2.789 1.533-4.372v-10.334c0-1.379-.935-2.576-2.272-2.911zm-54.728 17.349c-1.654 0-3-1.346-3-3s1.346-3 3-3 3 1.346 3 3-1.346 3-3 3zm13-15c-2.757 0-5-2.243-5-5s2.243-5 5-5 5 2.243 5 5-2.243 5-5 5zm12 7c-1.103 0-2-.897-2-2s.897-2 2-2 2 .897 2 2-.897 2-2 2zm14-20v1.997c-1.234-.929-2-2.399-2-3.997 0-2.757 2.243-5 5-5s5 2.243 5 5c0 1.598-.766 3.069-2 3.997v-1.997c0-1.654-1.346-3-3-3s-3 1.346-3 3zm15.59-2.892c.261.224.41.549.41.892s-.149.668-.409.891l-.928.794c-2.124 1.822-4.612 3.098-7.293 3.769 1.624-1.305 2.63-3.293 2.63-5.454 0-2.195-1.018-4.156-2.604-5.44 2.661.674 5.156 1.945 7.269 3.756zm-25.18 1.784c-.261-.224-.41-.549-.41-.892s.149-.668.409-.891l.927-.794c2.112-1.811 4.607-3.081 7.269-3.755-1.587 1.284-2.605 3.244-2.605 5.44 0 2.161 1.006 4.149 2.63 5.454-2.681-.671-5.169-1.947-7.294-3.77zm-6.792 33.108c-.341 0-.618-.277-.618-.618 0-.096.022-.191.065-.276l2.382-4.763c.211-.424.895-.423 1.105-.001l2.382 4.764c.044.084.066.18.066.276 0 .341-.277.618-.618.618h-1.382v18h-2v-18zm-12-7c-.341 0-.618-.277-.618-.618 0-.096.022-.191.065-.276l2.382-4.763c.211-.423.895-.422 1.105 0l2.382 4.764c.044.083.066.179.066.275 0 .341-.277.618-.618.618h-1.382v25h-2v-25zm-13 15c-.341 0-.618-.277-.618-.618 0-.096.022-.191.065-.276l2.382-4.763c.211-.424.895-.423 1.105-.001l2.382 4.764c.044.084.066.18.066.276 0 .341-.277.618-.618.618h-1.382v10h-2v-10zm41.382 10v-15.697l1.535-2.303h10.93l1.535 2.303v15.697zm16-26.104c0 1.131-.389 2.24-1.096 3.123l-2.385 2.981h-11.038l-2.385-2.981c-.707-.883-1.096-1.993-1.096-3.123v-4.479c0-1.082-.256-2.164-.739-3.131l-1.195-2.391c-.044-.086-.066-.182-.066-.277 0-.341.277-.618.618-.618 1.864 0 3.382 1.517 3.382 3.382v1.618 3h2v-3-1.618-16.382c0-.551.448-1 1-1s1 .449 1 1v7.719 13.281h2v-10.719l2 .5v10.219h2v-9.719l2 .5v9.219h2v-8.719l1.242.311c.446.111.758.51.758.97z"  data-original="#000000"/><path d="m19 16c-1.654 0-3 1.346-3 3s1.346 3 3 3 3-1.346 3-3-1.346-3-3-3zm0 4c-.552 0-1-.449-1-1s.448-1 1-1 1 .449 1 1-.448 1-1 1z"  data-original="#000000"/></g></g></svg>