<svg xmlns="http://www.w3.org/2000/svg" version="1.1" xmlns:xlink="http://www.w3.org/1999/xlink"  x="0" y="0" viewBox="0 0 64 64" style="enable-background:new 0 0 512 512" xml:space="preserve"><g><g><path d="m24.555 18.168-1.752-1.168 1.752-1.168-1.11-1.664-4.248 2.832 4.248 2.832z" fill="#F1B211" data-original="#000000"/><path d="m55 15v2h4.586l-14.586 14.586-6-6-6.131 6.131c-.573-.49-1.197-.93-1.869-1.311v-3.715c4.811-1.979 8-6.682 8-11.931v-.85c0-7.118-5.792-12.91-12.91-12.91h-7.09c-3.309 0-6 2.691-6 6 0 2.607 1.673 4.824 4 5.65v.532c0 .246-.02.488-.05.728l-10.95-.91h-3c-1.103 0-2 .897-2 2v6c0 1.103.897 2 2 2h2v7c0 8.003 4.981 14.852 12 17.647v15.35l44 .003v-30h-8v28h-2v-20h-8v19.999h-2v-11.999h-6v-2.906c1.244-1.451 2-3.33 2-5.386 0-2.834-.988-5.488-2.722-7.572l4.722-4.722 6 6 16-16v4.586h2v-8zm0 20h4v26h-4zm-25.213-.728-7.185 1.796c1.778-1.906 4.085-3.263 6.664-3.878zm-18.783-7.272h-4.004v-2h4.006zm-4.004-6c0-1.103.897-2 2-2 .539 0 1.044.209 1.424.589.378.379.586.883.585 1.418l-.002 1.993h-4.007zm6.008 1.419 3.992-.332v2.284c0 2.558 2.082 4.64 4.64 4.64.303 0 .609-.03.91-.09l.45-.091v4.163c-1.658 1.274-3.036 2.899-4.068 4.77-.986-.514-1.901-1.176-2.709-1.986-2.078-2.078-3.221-4.841-3.219-7.779zm12.455 14.996.317 1.585h-1.78c-1.064 0-2.104-.155-3.098-.445zm-10.463-30.415c0-2.206 1.794-4 4-4h7.09c6.016 0 10.91 4.894 10.91 10.91v.85c0 4.153-2.363 7.9-6 9.735v-3.071l1-1c.645-.645 1-1.502 1-2.414 0-1.304-.836-2.416-2-2.829v-2.181c0-2.206-1.794-4-4-4 0-2.206-1.794-4-4-4v2c1.103 0 2 .897 2 2s-.897 2-2 2h-4c-2.206 0-4-1.794-4-4zm8 6c1.474 0 2.75-.81 3.444-2h.556c1.103 0 2 .897 2 2v4.01h1c.551 0 1 .449 1 1 0 .372-.151.737-.414 1l-1.586 1.586v9.61c-1.412.317-2.756.819-4 1.499v-3.275l2.196-.439-.393-1.961-4.646.929c-1.405.281-2.742-.647-3.076-1.958h1.919c2.206 0 4-1.794 4-4h-2c0 1.103-.897 2-2 2h-2v-3.404l-1.63-1.63c1.058-1.364 1.63-3.03 1.63-4.784v-.183zm-6.318 7.106-3.73.311c-.124-.844-.499-1.626-1.113-2.241-.757-.758-1.766-1.176-2.839-1.176-.732 0-1.409.212-2 .556v-2.47l9.345.779c-.272.523-.623 1.008-1.052 1.438l-.707.707zm-13.682.894v-6l2-.002v6.002zm16 27.31c1.596.437 3.267.69 5 .69h4.708c1.572 0 3.038-.448 4.292-1.211v13.209l-14-.001zm26-5.31h4v17.999h-4zm-6 8v9.999h-4v-9.999zm-10.292-4h-4.708c-9.374 0-17-7.626-17-17v-1h4.051c.233 3.094 1.539 5.973 3.756 8.191 2.456 2.456 5.72 3.809 9.193 3.809h7v-2h-3.18l-.414-2.071 4.807-1.202-.611-2.442c2.129 1.842 3.398 4.511 3.398 7.423 0 3.469-2.823 6.292-6.292 6.292z" fill="#F1B211" data-original="#000000"/></g></g></svg>