<svg xmlns="http://www.w3.org/2000/svg" version="1.1" xmlns:xlink="http://www.w3.org/1999/xlink" xmlns:svgjs="http://svgjs.com/svgjs" x="0" y="0" viewBox="0 0 64 64" style="enable-background:new 0 0 512 512" xml:space="preserve"><g><path d="m13.828 6.758-2.828 2.828-2.828-2.828-1.414 1.414 2.828 2.828-2.828 2.828 1.414 1.414 2.828-2.828 2.828 2.828 1.414-1.414-2.828-2.828 2.828-2.828z" fill="currentColor" data-original="#000000"/><path d="m28.5 31h2v2h-2z" fill="currentColor" data-original="#000000"/><path d="m33.5 31h2v2h-2z" fill="currentColor" data-original="#000000"/><path d="m38.5 31h2v2h-2z" fill="currentColor" data-original="#000000"/><path d="m28.5 35h2v2h-2z" fill="currentColor" data-original="#000000"/><path d="m23.5 35h2v2h-2z" fill="currentColor" data-original="#000000"/><path d="m33.5 35h2v2h-2z" fill="currentColor" data-original="#000000"/><path d="m28.5 39h2v2h-2z" fill="currentColor" data-original="#000000"/><path d="m23.5 39h2v2h-2z" fill="currentColor" data-original="#000000"/><path d="m33.5 39h2v2h-2z" fill="currentColor" data-original="#000000"/><path d="m38.5 35h2v2h-2z" fill="currentColor" data-original="#000000"/><path d="m32 1a30.933 30.933 0 0 0 -13.686 3.2 9.985 9.985 0 1 0 -14.114 14.114 30.992 30.992 0 0 0 47.7 37.453l-1.285-1.534a28.987 28.987 0 0 1 -44.788-34.691 9.979 9.979 0 0 0 13.715-13.715 28.98 28.98 0 0 1 36.73 42.02l-.116-2.985-2 .078.238 6.1a1 1 0 0 0 1.377.887l5.649-2.311-.758-1.851-2.649 1.083a30.991 30.991 0 0 0 -26.013-47.848zm-21 18a8 8 0 1 1 8-8 8.009 8.009 0 0 1 -8 8z" fill="currentColor" data-original="#000000"/><path d="m27 24v-4h-2v1h-3a3 3 0 0 0 -3 3v19a3 3 0 0 0 3 3h17a1 1 0 0 0 .707-.293l5-5a1 1 0 0 0 .293-.707v-16a3 3 0 0 0 -3-3h-2v2h2a1 1 0 0 1 1 1v2h-22v-2a1 1 0 0 1 1-1h3v1zm13 18.586v-1.586h1.586zm3-14.586v11h-4a1 1 0 0 0 -1 1v4h-16a1 1 0 0 1 -1-1v-15z" fill="currentColor" data-original="#000000"/><path d="m38 24v-4h-2v1h-7v2h7v1z" fill="currentColor" data-original="#000000"/></g></svg>