<svg xmlns="http://www.w3.org/2000/svg" version="1.1" xmlns:xlink="http://www.w3.org/1999/xlink" xmlns:svgjs="http://svgjs.com/svgjs" x="0" y="0" viewBox="0 0 512.005 512.005" style="enable-background:new 0 0 512 512" xml:space="preserve"><g><g><path d="m491.968 256c12.155-9.129 20.032-23.66 20.032-39.998v-166c0-27.57-22.43-50-50-50h-166c-16.339 0-30.87 7.878-40 20.035-9.13-12.156-23.661-20.035-40-20.035h-166c-27.57 0-50 22.43-50 50v166c0 16.339 7.878 30.87 20.035 40-12.157 9.13-20.035 23.662-20.035 40v166c0 27.57 22.43 50 50 50h166c16.34 0 30.873-7.88 40.002-20.038 9.13 12.158 23.662 20.038 40.002 20.038h166c27.57 0 50-22.43 50-50v-166c.001-16.339-7.879-30.872-20.036-40.002zm-195.968-235.998h166c16.542 0 30 13.458 30 30v166c0 16.542-13.458 30-30 30h-165.995-.005c-16.542 0-30-13.458-30-30v-166c0-16.542 13.458-30 30-30zm-39.998 246.038c-2.854-3.801-6.236-7.183-10.037-10.038 3.8-2.854 7.181-6.235 10.035-10.035 2.854 3.801 6.236 7.183 10.037 10.037-3.8 2.854-7.181 6.236-10.035 10.036zm-236.002-50.038v-166c0-16.542 13.458-30 30-30h166c16.542 0 30 13.458 30 30v166c0 16.542-13.458 30-30 30h-166c-16.542 0-30-13.458-30-30zm226 246c0 16.542-13.458 30-30 30h-166c-16.542 0-30-13.458-30-30v-166c0-16.542 13.458-30 30-30h166c16.542 0 30 13.458 30 30zm246.005 0c0 16.542-13.458 30-30 30h-166c-16.542 0-30-13.458-30-30v-166c0-16.542 13.458-30 30-30h165.995.005c16.542 0 30 13.458 30 30z" fill="currentColor" data-original="#000000"/><path d="m133 329.066c-5.523 0-10 4.478-10 10v80c0 5.522 4.477 10 10 10s10-4.478 10-10v-80c0-5.523-4.477-10-10-10z" fill="currentColor" data-original="#000000"/><path d="m359.98 177.147c5.999 3.834 12.767 5.782 20.118 5.792h.057c6.331 0 12.275-1.377 17.669-4.093 17.009-8.564 20.58-21.54 20.58-30.916v-54.991c0-5.522-4.477-10-10-10s-10 4.478-10 10v54.991c0 3.833-1.088 8.779-9.575 13.053-2.613 1.316-5.451 1.956-8.673 1.956-.011 0-.021 0-.032 0-3.531-.005-6.598-.869-9.375-2.645-6.585-4.207-7.934-7.962-7.934-12.307v-55.048c0-5.522-4.477-10-10-10s-10 4.478-10 10v55.049c0 12.072 5.776 21.884 17.165 29.159z" fill="currentColor" data-original="#000000"/><path d="m179.858 160.107c5.088-7.829 8.058-17.155 8.058-27.168 0-27.57-22.43-50-50-50s-50 22.43-50 50 22.43 50 50 50c10.34 0 19.956-3.155 27.938-8.552l5.3 5.3c1.953 1.952 4.512 2.929 7.071 2.929s5.119-.977 7.071-2.929c3.905-3.905 3.905-10.237 0-14.143zm-41.942 2.832c-16.542 0-30-13.458-30-30s13.458-30 30-30 30 13.458 30 30c0 4.457-.984 8.685-2.735 12.491l-5.479-5.479c-3.905-3.904-10.237-3.904-14.142 0-3.905 3.905-3.905 10.237 0 14.143l5.702 5.701c-4.022 2.008-8.553 3.144-13.346 3.144z" fill="currentColor" data-original="#000000"/><path d="m405.689 409.066h-34.918l42.054-64.541c2.003-3.074 2.162-6.998.414-10.224-1.749-3.226-5.123-5.235-8.792-5.235h-50.486c-5.523 0-10 4.478-10 10s4.477 10 10 10h32.035l-42.054 64.541c-2.003 3.074-2.162 6.998-.414 10.224 1.749 3.226 5.123 5.235 8.792 5.235h53.369c5.523 0 10-4.478 10-10s-4.477-10-10-10z" fill="currentColor" data-original="#000000"/></g></g></svg>