<svg xmlns="http://www.w3.org/2000/svg" version="1.1" xmlns:xlink="http://www.w3.org/1999/xlink"  x="0" y="0" viewBox="0 0 512 512" style="enable-background:new 0 0 512 512" xml:space="preserve"><g><g><g><path d="m49.752 225.785c-3.813 1.617-5.594 6.019-3.978 9.833 22.793 53.757 75.178 88.492 133.456 88.492 79.887 0 144.88-64.993 144.88-144.88s-64.993-144.88-144.88-144.88-144.88 64.993-144.88 144.88c0 6.98.508 14.012 1.509 20.899.596 4.1 4.399 6.936 8.501 6.343 4.099-.596 6.938-4.402 6.343-8.501-.897-6.175-1.353-12.48-1.353-18.741 0-71.616 58.265-129.88 129.881-129.88s129.88 58.264 129.88 129.88-58.264 129.88-129.88 129.88c-52.244 0-99.208-31.146-119.645-79.348-1.618-3.814-6.023-5.593-9.834-3.977z" fill="currentColor" data-original="#000000"/><path d="m102.749 246.433h152.958c8.691 0 16.413-4.53 20.654-12.117 4.241-7.588 4.055-16.538-.499-23.942l-76.478-124.355c-4.339-7.055-11.874-11.267-20.156-11.267s-15.817 4.212-20.156 11.267l-76.479 124.355c-4.554 7.404-4.74 16.354-.499 23.942s11.963 12.117 20.655 12.117zm-7.379-28.201 76.478-124.355c1.612-2.622 4.302-4.125 7.379-4.125s5.767 1.503 7.379 4.125l76.479 124.356c2.403 3.907.929 7.431.183 8.765-.745 1.333-2.975 4.436-7.561 4.436h-152.958c-4.587 0-6.816-3.102-7.562-4.436-.746-1.335-2.22-4.859.183-8.766z" fill="currentColor" data-original="#000000"/><path d="m179.227 213.918c4.184 0 7.576-3.392 7.576-7.576s-3.392-7.576-7.576-7.576-7.576 3.392-7.576 7.576 3.392 7.576 7.576 7.576z" fill="currentColor" data-original="#000000"/><path d="m179.34 183.461c4.143 0 7.5-3.358 7.5-7.5v-49.035c0-4.142-3.357-7.5-7.5-7.5s-7.5 3.358-7.5 7.5v49.035c0 4.143 3.357 7.5 7.5 7.5z" fill="currentColor" data-original="#000000"/><path d="m509.803 427.767-65.77-65.77c-2.93-2.929-7.678-2.929-10.607 0s-2.929 7.678 0 10.606l65.77 65.77c1.465 1.465 3.384 2.197 5.304 2.197 1.919 0 3.839-.732 5.304-2.197 2.928-2.929 2.928-7.678-.001-10.606z" fill="currentColor" data-original="#000000"/><path d="m331.673 392.496c-.659-.66-.758-1.434-.758-1.836 0-.403.099-1.177.759-1.837l57.148-57.149c.66-.66 1.435-.759 1.838-.759.402 0 1.177.099 1.837.758l16.189 16.19c2.93 2.93 7.678 2.929 10.607 0s2.929-7.678 0-10.606l-16.19-16.19c-3.322-3.322-7.741-5.152-12.443-5.152s-9.121 1.83-12.444 5.152l-.414.414-12.253-12.253.415-.415c6.86-6.861 6.86-18.024 0-24.886l-25.822-25.822c11.721-23.815 18.318-50.587 18.318-78.875 0-49.723-20.922-97.634-57.401-131.45-3.038-2.816-7.783-2.636-10.599.401-2.816 3.038-2.637 7.783.401 10.599 33.427 30.987 52.599 74.889 52.599 120.45 0 90.557-73.673 164.23-164.229 164.23s-164.231-73.673-164.231-164.23 73.674-164.23 164.23-164.23c30.033 0 59.406 8.176 84.943 23.645 3.541 2.146 8.154 1.014 10.301-2.529 2.146-3.543 1.014-8.155-2.529-10.301-27.882-16.888-59.941-25.815-92.715-25.815-98.828 0-179.23 80.402-179.23 179.23s80.402 179.23 179.23 179.23c28.287 0 55.059-6.597 78.874-18.318l25.822 25.821c3.322 3.323 7.741 5.152 12.443 5.152s9.121-1.83 12.443-5.152l.414-.414 12.253 12.253-.413.413c-3.323 3.322-5.152 7.741-5.152 12.444 0 4.702 1.829 9.121 5.151 12.443l106.7 106.7c1.465 1.464 3.385 2.197 5.304 2.197s3.839-.732 5.304-2.197c2.929-2.929 2.929-7.678 0-10.606zm-35.303-36.381c-.402 0-1.177-.099-1.836-.758l-22.717-22.716c24.851-15.054 45.769-35.973 60.823-60.823l22.716 22.715c1.013 1.013 1.013 2.661 0 3.674l-57.15 57.151c-.659.659-1.434.757-1.836.757zm23.464-1.172 35.108-35.108 12.253 12.253-35.108 35.108z" fill="currentColor" data-original="#000000"/></g></g></g></svg>