<svg xmlns="http://www.w3.org/2000/svg" version="1.1" xmlns:xlink="http://www.w3.org/1999/xlink" x="0" y="0" viewBox="0 0 512.107 512.107" style="enable-background:new 0 0 512 512" xml:space="preserve"><g><g><g id="Page-1_69_"><g id="_x30_70---About-Us" transform="translate(0 -1)"><path id="Shape_268_" d="m256.054 427.786c-14.139 0-25.6 11.462-25.6 25.6s11.462 25.6 25.6 25.6 25.6-11.462 25.6-25.6c0-14.139-11.462-25.6-25.6-25.6zm0 34.133c-4.713 0-8.533-3.82-8.533-8.533s3.821-8.533 8.533-8.533c4.713 0 8.533 3.821 8.533 8.533s-3.821 8.533-8.533 8.533z" fill="#F1B211" data-original="#000000"/><path id="Shape_267_" d="m462.714 183.041c27.228-19.375 38.802-54.134 28.625-85.964-10.178-31.831-39.77-53.426-73.188-53.41s-62.99 21.64-73.137 53.48 1.46 66.588 28.707 85.937c-9.001 2.635-17.367 7.084-24.585 13.073-3.864-26.498-22.842-48.302-48.555-55.782 27.223-19.371 38.798-54.12 28.63-85.947s-39.746-53.428-73.157-53.428-62.989 21.601-73.157 53.428 1.408 66.576 28.63 85.947c-25.713 7.481-44.691 29.284-48.555 55.782-7.217-5.989-15.584-10.438-24.585-13.073 27.247-19.349 38.854-54.096 28.707-85.937-10.147-31.84-39.719-53.464-73.137-53.48s-63.011 21.58-73.188 53.41 1.396 66.589 28.625 85.964c-29.186 8.455-49.288 35.159-49.34 65.545v72.533c.024 11.749 6.934 22.392 17.655 27.196 2.889 21.043 20.838 36.742 42.078 36.804h52.292c8.611 72.99 70.478 127.988 143.974 127.988s135.364-54.998 143.974-127.988h52.292c21.219-.085 39.142-15.768 42.044-36.787 10.741-4.796 17.666-15.45 17.69-27.213v-72.533c-.051-30.386-20.153-57.09-49.339-65.545zm-104.26-62.455c0-32.99 26.744-59.733 59.733-59.733s59.733 26.744 59.733 59.733-26.744 59.733-59.733 59.733c-32.972-.042-59.691-26.761-59.733-59.733zm-162.134-42.667c0-32.99 26.744-59.733 59.733-59.733s59.733 26.744 59.733 59.733-26.743 59.733-59.733 59.733c-32.972-.042-59.69-26.761-59.733-59.733zm34.134 76.8h51.2c28.265.028 51.172 22.935 51.2 51.2v39.253c-8.094-5.07-16.669-9.329-25.6-12.715v-26.539c0-4.713-3.82-8.533-8.533-8.533s-8.533 3.82-8.533 8.533v21.333c-22.407-5.632-45.86-5.632-68.267 0v-21.333c0-4.713-3.821-8.533-8.533-8.533s-8.533 3.82-8.533 8.533v26.573c-8.931 3.385-17.506 7.644-25.6 12.715v-39.287c.027-28.265 22.933-51.172 51.199-51.2zm-196.267-34.133c0-32.99 26.744-59.733 59.733-59.733s59.733 26.744 59.733 59.733-26.744 59.733-59.733 59.733c-32.972-.042-59.691-26.761-59.733-59.733zm25.6 247.467c-11.026-.039-20.783-7.147-24.201-17.63 14.072-2.664 24.245-14.982 24.201-29.303v-72.533c0-4.713-3.821-8.533-8.533-8.533s-8.533 3.821-8.533 8.533v72.533c0 7.069-5.731 12.8-12.8 12.8s-12.8-5.731-12.8-12.8v-72.533c.028-28.265 22.935-51.172 51.2-51.2h51.2c17.227-.065 33.304 8.639 42.667 23.1v37.163c-6.153 5.223-11.862 10.949-17.067 17.118v-26.18c0-4.713-3.821-8.533-8.533-8.533s-8.533 3.821-8.533 8.533v51.345c-11.22 20.952-17.083 44.354-17.067 68.122h-51.201zm196.267 128c-70.692 0-128-57.308-128-128s57.308-128 128-128 128 57.308 128 128c-.08 70.659-57.341 127.92-128 128zm238.933-174.934c0 7.069-5.731 12.8-12.8 12.8s-12.8-5.731-12.8-12.8v-72.533c0-4.713-3.821-8.533-8.533-8.533s-8.533 3.821-8.533 8.533v72.533c-.044 14.322 10.129 26.64 24.201 29.303-3.417 10.483-13.175 17.591-24.201 17.63h-51.2c.016-23.767-5.847-47.169-17.067-68.122v-51.345c0-4.713-3.821-8.533-8.533-8.533-4.713 0-8.533 3.821-8.533 8.533v26.18c-5.205-6.169-10.913-11.895-17.067-17.118v-37.163c9.363-14.461 25.44-23.165 42.667-23.1h51.2c28.265.028 51.172 22.935 51.2 51.2v72.535z" fill="#F1B211" data-original="#000000"/><path id="Shape_266_" d="m267.77 258.101c-19.484-3.36-39.469 1.881-54.797 14.37s-24.498 31.003-25.143 50.765c-.762 13.222 8.405 24.957 21.419 27.418 7.415 1.215 14.989-.889 20.714-5.754 5.726-4.865 9.025-12 9.024-19.513-.047-8.758 6.544-16.13 15.252-17.061 8.709-.931 16.708 4.881 18.514 13.451.996 4.591.057 9.389-2.598 13.265s-6.79 6.486-11.431 7.215c-16.158 3.116-27.941 17.101-28.271 33.553v8.397c-.16 12.737 8.825 23.761 21.333 26.172 1.411.227 2.838.341 4.267.341 12.737.021 23.552-9.325 25.378-21.931 28.39-11.313 45.802-40.115 42.626-70.51-3.175-30.395-26.165-54.977-56.28-60.177h-.007zm2.91 116.36c-3.615 1.079-6.092 4.403-6.093 8.175v2.483c.001 2.525-1.116 4.921-3.051 6.543s-4.489 2.304-6.975 1.862c-4.261-1.042-7.202-4.935-7.04-9.318v-8.397c.271-8.069 5.962-14.936 13.841-16.7 16.427-2.562 28.618-16.587 28.869-33.21s-11.511-31.009-27.853-34.066c-2.069-.383-4.168-.577-6.272-.58-9.062-.014-17.757 3.577-24.169 9.979-6.412 6.403-10.016 15.092-10.016 24.154.001 2.503-1.097 4.88-3.004 6.502-1.941 1.629-4.498 2.328-6.997 1.911-4.515-1.128-7.522-5.395-7.066-10.027.827-26.146 21.231-47.464 47.316-49.435s49.461 16.038 54.208 41.763-10.662 50.892-35.732 58.36h.034z" fill="#F1B211"  data-original="#000000"/></g></g></g></g></svg>