<svg xmlns="http://www.w3.org/2000/svg" version="1.1" xmlns:xlink="http://www.w3.org/1999/xlink"  x="0" y="0" viewBox="0 0 16.933333 16.933334" style="enable-background:new 0 0 512 512" xml:space="preserve"><g><g id="layer1" transform="translate(0 -280.067)"><path id="path13165" d="m8.292513 280.64698c-1.1455101.22836-1.6779301 1.25695-1.6779301 2.06603.0000098.98293.6771399 1.80941 1.5880201 2.04535v.51987c-.5855903.91278-1.8914501 1.53661-3.1279803 2.29288-1.3738098.84023-2.4168 1.88903-2.4287899 3.60805-.008 1.14112.3134699 1.98536.6743801 2.56935.18223.31288.6482999.025.4500999-.27802-.3138101-.50777-.6079699-1.24624-.5953101-2.29133.0196-1.62087 1.08042-2.46821 2.1802202-3.1595 1.10153-.69237 2.3650998-1.23065 3.1114401-2.20529.74634.97464 1.93647 1.44288 3.11144 2.20529 1.19788.77727 2.20657 1.6198 2.18023 3.1595-.0216 1.25995-.39322 2.39437-1.3994 3.17448h-8.9203902c-.4351599 0-.79271.36014-.79271.7953v1.05627c-.0005291.14612.1174301.26503.26355.26562h11.1135302c.14693.00055.26618-.11869.26562-.26562v-1.05627c0-.43516-.35962-.7953-.79478-.7953h-.34314c.94177-1.04646 1.14817-2.26139 1.13689-3.17448-.0226-1.82704-1.16559-2.81414-2.4288-3.60805-1.22651-.77085-2.54085-1.37942-3.12694-2.29133v-.45165c.95681-.001 1.79162-.63958 2.03915-1.55908.10652-.31561-.21828-.49183-.40824-.32763-.23615.19354-.53235.30095-.83767.30127-.73377 0-1.3224-.5907-1.3224-1.32446.0002-.30528.1053-.59992.29869-.83613.14706-.17439.0193-.44071-.20878-.43512zm-.5684401.84646c-.0326.13844-.0511.28064-.0512.42479 0 1.01974.8323401 1.85363 1.8520901 1.85363.14471-.00016.28739-.0191.42633-.0522-.29351.35602-.73304.57872-1.21957.57929-.8798902 0-1.5880001-.70606-1.5880102-1.58595.0005292-.48667.224-.92604.5803199-1.21956zm-4.2855301 13.38937h10.0552102c.15115 0 .26561.11498.26561.26613v.79272h-10.5843603v-.79272c0-.15115.1124101-.26613.2635401-.26613z" font-variant-ligatures="normal" font-variant-position="normal" font-variant-caps="normal" font-variant-numeric="normal" font-variant-alternates="normal" font-feature-settings="normal" text-indent="0" text-align="start" text-decoration-line="none" text-decoration-style="solid" text-decoration-color="rgb(0,0,0)" text-transform="none" text-orientation="mixed" white-space="normal" shape-padding="0" isolation="auto" mix-blend-mode="normal" solid-color="rgb(0,0,0)" solid-opacity="1" vector-effect="none" fill="currentColor" data-original="#000000"/></g></g></svg>